<svg id="visual" viewBox="0 0 900 600" width="900" height="600" xmlns="http://www.w3.org/2000/svg" xmlns:xlink="http://www.w3.org/1999/xlink" version="1.1"><rect x="0" y="0" width="900" height="600" fill="#1c3d5d"></rect><defs><linearGradient id="grad1_0" x1="33.3%" y1="100%" x2="100%" y2="0%"><stop offset="20%" stop-color="#1c3d5d" stop-opacity="1"></stop><stop offset="80%" stop-color="#1c3d5d" stop-opacity="1"></stop></linearGradient></defs><defs><linearGradient id="grad2_0" x1="0%" y1="100%" x2="66.7%" y2="0%"><stop offset="20%" stop-color="#1c3d5d" stop-opacity="1"></stop><stop offset="80%" stop-color="#1c3d5d" stop-opacity="1"></stop></linearGradient></defs><g transform="translate(900, 600)"><path d="M-216.3 0C-213.3 -42.4 -210.3 -84.8 -187.3 -108.2C-164.4 -131.5 -121.5 -135.8 -87 -150.7C-52.5 -165.5 -26.2 -190.9 0 -216.3L0 0Z" fill="#EB5D2F"></path></g><g transform="translate(0, 0)"><path d="M216.3 0C211.6 39.5 207 79 187.3 108.2C167.7 137.3 133.2 156 99.5 172.3C65.8 188.6 32.9 202.5 0 216.3L0 0Z" fill="#EB5D2F"></path></g></svg>