<svg id="visual" viewBox="0 0 900 600" width="900" height="600" xmlns="http://www.w3.org/2000/svg" xmlns:xlink="http://www.w3.org/1999/xlink" version="1.1"><rect x="0" y="0" width="900" height="600" fill="#001220"></rect><path d="M0 360L37.5 372.2C75 384.3 150 408.7 225 421C300 433.3 375 433.7 450 432.2C525 430.7 600 427.3 675 415.7C750 404 825 384 862.5 374L900 364L900 601L862.5 601C825 601 750 601 675 601C600 601 525 601 450 601C375 601 300 601 225 601C150 601 75 601 37.5 601L0 601Z" fill="#8a534f"></path><path d="M0 433L37.5 434C75 435 150 437 225 435.8C300 434.7 375 430.3 450 433.7C525 437 600 448 675 449.5C750 451 825 443 862.5 439L900 435L900 601L862.5 601C825 601 750 601 675 601C600 601 525 601 450 601C375 601 300 601 225 601C150 601 75 601 37.5 601L0 601Z" fill="#a5554b"></path><path d="M0 462L37.5 461.7C75 461.3 150 460.7 225 462C300 463.3 375 466.7 450 468.3C525 470 600 470 675 467.3C750 464.7 825 459.3 862.5 456.7L900 454L900 601L862.5 601C825 601 750 601 675 601C600 601 525 601 450 601C375 601 300 601 225 601C150 601 75 601 37.5 601L0 601Z" fill="#be5745"></path><path d="M0 522L37.5 523.7C75 525.3 150 528.7 225 523.7C300 518.7 375 505.3 450 500.7C525 496 600 500 675 505C750 510 825 516 862.5 519L900 522L900 601L862.5 601C825 601 750 601 675 601C600 601 525 601 450 601C375 601 300 601 225 601C150 601 75 601 37.5 601L0 601Z" fill="#d5593c"></path><path d="M0 552L37.5 550C75 548 150 544 225 543.8C300 543.7 375 547.3 450 547.7C525 548 600 545 675 546.8C750 548.7 825 555.3 862.5 558.7L900 562L900 601L862.5 601C825 601 750 601 675 601C600 601 525 601 450 601C375 601 300 601 225 601C150 601 75 601 37.5 601L0 601Z" fill="#eb5d2f"></path></svg>