<svg id="visual" viewBox="0 0 900 600" width="900" height="600" xmlns="http://www.w3.org/2000/svg" xmlns:xlink="http://www.w3.org/1999/xlink" version="1.1"><path d="M0 25L30 25C60 25 120 25 180 25C240 25 300 25 360 27C420 29 480 33 540 33C600 33 660 29 720 27C780 25 840 25 870 25L900 25L900 0L870 0C840 0 780 0 720 0C660 0 600 0 540 0C480 0 420 0 360 0C300 0 240 0 180 0C120 0 60 0 30 0L0 0Z" fill="#ae4223"></path><path d="M0 109L30 116C60 123 120 137 180 137C240 137 300 123 360 116C420 109 480 109 540 120C600 131 660 153 720 160C780 167 840 159 870 155L900 151L900 23L870 23C840 23 780 23 720 25C660 27 600 31 540 31C480 31 420 27 360 25C300 23 240 23 180 23C120 23 60 23 30 23L0 23Z" fill="#b94725"></path><path d="M0 133L30 139C60 145 120 157 180 157C240 157 300 145 360 139C420 133 480 133 540 144C600 155 660 177 720 183C780 189 840 179 870 174L900 169L900 149L870 153C840 157 780 165 720 158C660 151 600 129 540 118C480 107 420 107 360 114C300 121 240 135 180 135C120 135 60 121 30 114L0 107Z" fill="#c44c27"></path><path d="M0 193L30 198C60 203 120 213 180 215C240 217 300 211 360 204C420 197 480 189 540 200C600 211 660 241 720 250C780 259 840 247 870 241L900 235L900 167L870 172C840 177 780 187 720 181C660 175 600 153 540 142C480 131 420 131 360 137C300 143 240 155 180 155C120 155 60 143 30 137L0 131Z" fill="#cf502a"></path><path d="M0 235L30 239C60 243 120 251 180 251C240 251 300 243 360 237C420 231 480 227 540 237C600 247 660 271 720 280C780 289 840 283 870 280L900 277L900 233L870 239C840 245 780 257 720 248C660 239 600 209 540 198C480 187 420 195 360 202C300 209 240 215 180 213C120 211 60 201 30 196L0 191Z" fill="#da552c"></path><path d="M0 373L30 379C60 385 120 397 180 399C240 401 300 393 360 386C420 379 480 373 540 376C600 379 660 391 720 392C780 393 840 383 870 378L900 373L900 275L870 278C840 281 780 287 720 278C660 269 600 245 540 235C480 225 420 229 360 235C300 241 240 249 180 249C120 249 60 241 30 237L0 233Z" fill="#e55a2e"></path><path d="M0 397L30 403C60 409 120 421 180 423C240 425 300 417 360 411C420 405 480 401 540 405C600 409 660 421 720 421C780 421 840 409 870 403L900 397L900 371L870 376C840 381 780 391 720 390C660 389 600 377 540 374C480 371 420 377 360 384C300 391 240 399 180 397C120 395 60 383 30 377L0 371Z" fill="#ed6235"></path><path d="M0 421L30 427C60 433 120 445 180 446C240 447 300 437 360 431C420 425 480 423 540 427C600 431 660 441 720 442C780 443 840 435 870 431L900 427L900 395L870 401C840 407 780 419 720 419C660 419 600 407 540 403C480 399 420 403 360 409C300 415 240 423 180 421C120 419 60 407 30 401L0 395Z" fill="#f06b41"></path><path d="M0 451L30 457C60 463 120 475 180 478C240 481 300 475 360 469C420 463 480 457 540 461C600 465 660 479 720 479C780 479 840 465 870 458L900 451L900 425L870 429C840 433 780 441 720 440C660 439 600 429 540 425C480 421 420 423 360 429C300 435 240 445 180 444C120 443 60 431 30 425L0 419Z" fill="#f3754d"></path><path d="M0 511L30 515C60 519 120 527 180 531C240 535 300 535 360 531C420 527 480 519 540 519C600 519 660 527 720 527C780 527 840 519 870 515L900 511L900 449L870 456C840 463 780 477 720 477C660 477 600 463 540 459C480 455 420 461 360 467C300 473 240 479 180 476C120 473 60 461 30 455L0 449Z" fill="#f67e58"></path><path d="M0 547L30 550C60 553 120 559 180 560C240 561 300 557 360 554C420 551 480 549 540 549C600 549 660 551 720 551C780 551 840 549 870 548L900 547L900 509L870 513C840 517 780 525 720 525C660 525 600 517 540 517C480 517 420 525 360 529C300 533 240 533 180 529C120 525 60 517 30 513L0 509Z" fill="#f98764"></path><path d="M0 601L30 601C60 601 120 601 180 601C240 601 300 601 360 601C420 601 480 601 540 601C600 601 660 601 720 601C780 601 840 601 870 601L900 601L900 545L870 546C840 547 780 549 720 549C660 549 600 547 540 547C480 547 420 549 360 552C300 555 240 559 180 558C120 557 60 551 30 548L0 545Z" fill="#fb906f"></path></svg>