<svg id="visual" viewBox="0 0 900 600" width="900" height="600" xmlns="http://www.w3.org/2000/svg" xmlns:xlink="http://www.w3.org/1999/xlink" version="1.1"><rect x="0" y="0" width="900" height="600" fill="#26424f"></rect><path d="M0 474L15 474.5C30 475 60 476 90 473.3C120 470.7 150 464.3 180 468.3C210 472.3 240 486.7 270 493.2C300 499.7 330 498.3 360 495.2C390 492 420 487 450 480.5C480 474 510 466 540 467.7C570 469.3 600 480.7 630 483.7C660 486.7 690 481.3 720 476.2C750 471 780 466 810 463.8C840 461.7 870 462.3 885 462.7L900 463L900 601L885 601C870 601 840 601 810 601C780 601 750 601 720 601C690 601 660 601 630 601C600 601 570 601 540 601C510 601 480 601 450 601C420 601 390 601 360 601C330 601 300 601 270 601C240 601 210 601 180 601C150 601 120 601 90 601C60 601 30 601 15 601L0 601Z" fill="#EB5D2F" stroke-linecap="round" stroke-linejoin="miter"></path></svg>